<svg width="54" height="60" viewBox="0 0 54 60" fill="none" xmlns="http://www.w3.org/2000/svg">
<path d="M6.59999 28.8599C6.24003 28.8599 5.94004 28.5599 5.94004 28.2C5.88008 12.66 15.24 0 26.7 0C38.16 0 47.52 12.6 47.52 28.08C47.52 28.4399 47.22 28.7399 46.8601 28.7399C46.5001 28.7399 46.2001 28.4399 46.2001 28.08C46.2001 13.38 37.4401 1.38 26.7001 1.38C15.9601 1.38 7.26014 13.38 7.26014 28.2C7.26014 28.5599 6.96014 28.8599 6.60019 28.8599H6.59999Z" fill="#BBBBBB"/>
<path d="M49.44 40.5001H20.46C20.1 40.5001 19.8001 40.2001 19.8001 39.8401C19.8001 39.4801 20.1001 39.1801 20.46 39.1801H49.5C50.9401 39.1801 52.1401 37.9801 52.1401 36.5401C52.1401 35.1 50.9401 33.9 49.5 33.9H4.56C3.11995 33.9 1.91995 35.1 1.91995 36.5401C1.91995 37.9801 3.11995 39.1801 4.56 39.1801H9.4799C9.83986 39.1801 10.1399 39.4801 10.1399 39.8401C10.1399 40.2001 9.83985 40.5001 9.4799 40.5001H4.56C2.3401 40.5001 0.5401 38.7 0.5401 36.4801C0.5401 34.2602 2.3401 32.4602 4.56 32.4602H49.5C51.7199 32.4602 53.5199 34.2602 53.5199 36.4801C53.4599 38.7 51.66 40.5001 49.44 40.5001Z" fill="#BBBBBB"/>
<path d="M27.3 60.0001H26.7H26.6401C15.78 60.0001 6.36005 51.7801 3.84005 39.9601C3.78009 39.6001 4.02013 39.2402 4.3801 39.12C4.74006 39.0601 5.1 39.3001 5.22015 39.6601C7.62015 50.8201 16.4402 58.6201 26.7002 58.6201H26.7601H27.3002H27.3601C37.6201 58.6201 46.4401 50.8201 48.8401 39.6601C48.9001 39.3001 49.26 39.0601 49.6802 39.12C50.0401 39.18 50.2802 39.5399 50.2202 39.9601C47.58 51.7801 38.2197 60.0001 27.2997 60.0001H27.3Z" fill="#BBBBBB"/>
<path d="M48.96 33.8999C48.6001 33.8999 48.3001 33.5999 48.3001 33.2399V30.8999V28.7999H45.4199C45.36 29.1598 45.4199 29.88 45.4199 30.8399V33.2399C45.4199 33.5999 45.1199 33.8999 44.76 33.8999C44.4 33.8999 44.1 33.5999 44.1 33.2399V30.8999C44.1 28.68 44.1 28.1399 44.46 27.78C44.76 27.48 45.12 27.48 45.2401 27.48H48.5401C48.66 27.48 49.0202 27.48 49.3202 27.78C49.7402 28.1999 49.7402 28.68 49.6802 30.9601V33.3001C49.6802 33.5999 49.3802 33.8999 48.9601 33.8999L48.96 33.8999Z" fill="#BBBBBB"/>
<path d="M8.75998 33.8999C8.40002 33.8999 8.10003 33.5999 8.10003 33.2399V30.8999V28.8598H5.15999V30.8999V33.2399C5.15999 33.5999 4.85999 33.8999 4.50004 33.8999C4.14009 33.8999 3.84009 33.5999 3.84009 33.2399V30.8999C3.84009 28.7399 3.84009 28.1999 4.20005 27.78C4.50005 27.48 4.86 27.48 4.98015 27.48H8.34009C8.46001 27.48 8.82017 27.48 9.12019 27.78C9.54011 28.1999 9.54011 28.62 9.48015 30.8999V33.2399C9.42 33.5999 9.12 33.8999 8.76005 33.8999H8.75998Z" fill="#BBBBBB"/>
<path d="M22.68 33.8999C22.32 33.8999 22.02 33.5999 22.02 33.24L22.0198 22.02C22.0198 20.3399 22.7999 18.96 24.2397 18.1799C25.9198 17.22 28.1397 17.22 29.8197 18.1799C31.2597 19.02 32.0396 20.3399 32.0396 22.02V33.18C32.0396 33.5399 31.7396 33.8399 31.3796 33.8399C31.0197 33.8399 30.7197 33.5399 30.7197 33.18V22.02C30.7197 20.52 29.8797 19.7399 29.2197 19.32C27.9598 18.6001 26.2197 18.6001 25.0197 19.32C24.3598 19.7399 23.5197 20.52 23.5197 22.02V33.18C23.3998 33.6001 23.0998 33.9 22.6799 33.9L22.68 33.8999Z" fill="#BBBBBB"/>
<path d="M39.3 33.8999C38.94 33.8999 38.6401 33.5999 38.6401 33.24V24.24C38.6401 23.28 37.9801 22.44 37.0202 22.3201C35.1602 22.0201 33.3003 22.0201 31.5002 22.3201C31.1402 22.3801 30.7803 22.14 30.7201 21.78C30.6601 21.4201 30.9001 21.0601 31.2601 21C33.2402 20.64 35.28 20.64 37.2601 21C38.88 21.2999 40.0201 22.68 40.0201 24.2999V33.2399C39.9599 33.5999 39.6599 33.8999 39.3 33.8999L39.3 33.8999Z" fill="#BBBBBB"/>
<path d="M14.64 33.8999C14.34 33.8999 14.04 33.7199 13.9801 33.4199C12.4201 27.7199 14.64 22.6199 17.64 21.1199C19.6201 20.1 21.6599 20.7599 23.28 22.8C23.52 23.1 23.4601 23.5199 23.1601 23.7599C22.8601 24 22.4402 23.94 22.2001 23.64C21.0001 22.0801 19.62 21.6599 18.2402 22.3201C15.7203 23.5801 13.9803 28.2001 15.3002 33.0601C15.4201 33.4201 15.1802 33.78 14.8201 33.9001C14.7599 33.9 14.7 33.9 14.64 33.9L14.64 33.8999Z" fill="#BBBBBB"/>
<path d="M28.98 19.1401C28.62 19.1401 28.32 18.8401 28.32 18.4801V16.1401C28.32 15.4202 27.72 14.8801 27.0601 14.8801C26.3402 14.8801 25.8001 15.4801 25.8001 16.1401V18.4801C25.8001 18.8401 25.5001 19.1401 25.1402 19.1401C24.7802 19.1401 24.4802 18.8401 24.4802 18.4801V16.1401C24.4802 14.7 25.6802 13.5 27.1203 13.5C28.5603 13.5 29.7603 14.7 29.7603 16.1401V18.4801C29.64 18.8401 29.34 19.1401 28.9801 19.1401H28.98Z" fill="#BBBBBB"/>
</svg>
