<svg width="52" height="60" viewBox="0 0 52 60" fill="none" xmlns="http://www.w3.org/2000/svg">
<path d="M27.62 60.0002C26.72 60.0002 26.18 60.0002 26.0001 59.9402C24.92 60.0002 9.68009 60.7203 1.04009 52.0802C0.860006 51.9002 0.800046 51.6603 0.860006 51.4802C0.919966 51.3002 6.02001 33.9002 17.96 21.7802C17.96 21.1203 17.8401 19.0203 16.76 15.9002C16.7001 15.6602 14.6001 10.2002 16.5799 6.90023C17.36 5.58033 18.62 4.80024 20.36 4.62014C20.48 4.62014 23.4799 4.32013 26 6.48008C28.5199 4.32013 31.52 4.62014 31.64 4.62014C33.3801 4.86018 34.64 5.64003 35.4201 6.90023C37.4002 10.2002 35.3002 15.7202 35.2401 15.9602C34.1 19.0801 34.0401 21.1802 34.0401 21.8402C45.9801 33.9002 51.0801 51.3602 51.1401 51.5402C51.2 51.7803 51.1401 52.0203 50.96 52.1402C43.76 59.2802 32 60.0002 27.62 60.0002L27.62 60.0002ZM2.17999 51.4802C10.58 59.5202 25.82 58.6802 25.94 58.6802H26C26.18 58.6802 41.36 59.5202 49.76 51.4802C48.9799 48.9603 43.82 33.4202 32.9 22.5002C32.78 22.3803 32.7199 22.2602 32.7199 22.0803C32.7199 21.9604 32.5398 19.5002 33.9798 15.4803C33.9798 15.4203 35.8997 10.3203 34.2798 7.50027C33.6798 6.54033 32.7798 6.00027 31.3997 5.82017C31.3997 5.82017 28.5196 5.52018 26.3597 7.74008C26.1197 7.98011 25.6998 7.98011 25.4597 7.74008C23.2998 5.58013 20.4197 5.82017 20.4197 5.82017C19.0998 6.00025 18.1396 6.54007 17.5396 7.50027C15.8595 10.2602 17.7797 15.4203 17.8396 15.4803C19.2797 19.5604 19.1595 22.0203 19.1595 22.0803C19.1595 22.2002 19.0996 22.3803 18.9794 22.5002C8.11994 33.4202 2.95994 48.9602 2.17994 51.4802H2.17999Z" fill="#BBBBBB"/>
<path d="M31.58 5.8801C31.2201 5.8801 30.98 5.5801 30.98 5.2801V0.6C30.98 0.24004 31.28 0 31.58 0C31.94 0 32.18 0.3 32.18 0.6V5.2199C32.18 5.58005 31.88 5.88005 31.58 5.88005V5.8801Z" fill="#BBBBBB"/>
<path d="M20.42 5.8801C20.06 5.8801 19.82 5.5801 19.82 5.2801V0.6C19.82 0.24004 20.12 0 20.42 0C20.7799 0 21.02 0.3 21.02 0.6V5.2199C21.0801 5.58005 20.7801 5.88005 20.42 5.88005V5.8801Z" fill="#BBBBBB"/>
<path d="M26 23.46C23.4801 23.46 21.0199 23.22 18.5 22.7401H18.44C18.0801 22.6802 17.9 22.3202 17.9599 22.0202C18.0199 21.6603 18.3199 21.4802 18.6798 21.5402H18.7398C23.5398 22.4402 28.4598 22.4402 33.2598 21.5402H33.3198C33.6797 21.4802 33.9797 21.7202 34.0397 22.0202C34.0996 22.3802 33.8596 22.6802 33.5596 22.7401H33.4996C30.9801 23.22 28.5199 23.46 26.0001 23.46H26Z" fill="#BBBBBB"/>
<path d="M26 19.02C23.3 19.02 20.6 18.78 17.96 18.2399H17.9C17.5401 18.18 17.36 17.88 17.42 17.52C17.4799 17.16 17.7799 16.9799 18.1399 17.0399H18.1998C23.4198 17.9999 28.6398 17.9999 33.8598 17.0399H33.9198C34.2797 16.98 34.5797 17.22 34.6397 17.52C34.6996 17.88 34.4596 18.18 34.1596 18.2399H34.0996C31.4 18.7802 28.7001 19.02 26.0001 19.02H26Z" fill="#BBBBBB"/>
</svg>
