<svg width="50" height="60" viewBox="0 0 50 60" fill="none" xmlns="http://www.w3.org/2000/svg">
<path d="M44.74 60H5.25998C2.44008 60 0.0999756 57.7199 0.0999756 54.84V33.24C0.0999756 30.4201 2.38008 28.08 5.25998 28.08H14.02C14.86 28.08 15.5799 27.54 15.82 26.7601L16.36 25.0201C16.78 23.64 18.0401 22.74 19.4799 22.74H30.4C31.84 22.74 33.1 23.64 33.5199 25.0201L34.0599 26.7601C34.3 27.5402 35.0199 28.08 35.8599 28.08H44.6199C47.4398 28.08 49.7799 30.3601 49.7799 33.24V54.84C49.9002 57.7199 47.5602 60 44.7404 60H44.74ZM5.25998 29.52C3.15998 29.52 1.47988 31.2001 1.47988 33.3001V54.9001C1.47988 57.0001 3.15998 58.6802 5.25998 58.6802H44.74C46.84 58.6802 48.5201 57.0001 48.5201 54.9001V33.3001C48.5201 31.2001 46.84 29.52 44.74 29.52H35.98C34.54 29.52 33.28 28.62 32.8601 27.2399L32.3201 25.4999C32.08 24.7198 31.3601 24.18 30.5201 24.18L19.54 24.1802C18.7 24.1802 17.9801 24.7202 17.74 25.5001L17.2 27.2401C16.7801 28.6202 15.5199 29.5202 14.0801 29.5202L5.25998 29.52Z" fill="#BBBBBB"/>
<path d="M25 55.0201C18.58 55.0201 13.36 49.8001 13.36 43.3801C13.36 37.0201 18.58 31.8 25 31.8C31.42 31.8 36.64 37.0201 36.64 43.4401C36.64 49.8001 31.42 55.0201 25 55.0201ZM25 33.1801C19.36 33.1801 14.74 37.8 14.74 43.4401C14.74 49.0802 19.3599 53.7001 25 53.7001C30.6401 53.7001 35.26 49.0802 35.26 43.4401C35.26 37.8 30.6401 33.1801 25 33.1801Z" fill="#BBBBBB"/>
<path d="M25 51.0002C24.6401 51.0002 24.3401 50.7002 24.3401 50.3402C24.3401 49.9803 24.6401 49.6803 25 49.6803C28.42 49.6803 31.1801 46.9203 31.1801 43.5003C31.1801 43.1403 31.4801 42.8403 31.84 42.8403C32.2 42.8403 32.5 43.1403 32.5 43.5003C32.5599 47.5804 29.14 51.0003 24.9999 51.0003L25 51.0002Z" fill="#BBBBBB"/>
<path d="M33.04 19.2001H16.96C15.16 19.2001 13.72 17.76 13.72 15.96V3.24005C13.72 1.44005 15.16 0 16.96 0H32.98C34.78 0 36.22 1.44005 36.22 3.24005V15.9C36.2802 17.76 34.8401 19.2 33.0401 19.2L33.04 19.2001ZM16.96 1.3801C15.9401 1.3801 15.0401 2.22015 15.0401 3.3V15.96C15.0401 16.9799 15.8802 17.8799 16.96 17.8799H32.98C33.9999 17.8799 34.8999 17.0398 34.8999 15.96L34.9001 3.24C34.9001 2.2201 34.06 1.3201 32.9802 1.3201L16.9602 1.3199L16.96 1.3801Z" fill="#BBBBBB"/>
<path d="M30.6999 11.8801C30.34 11.8801 30.04 11.5801 30.04 11.2201V6.06013L20.02 6.05993V11.2199C20.02 11.5799 19.72 11.8799 19.36 11.8799C19.0001 11.8799 18.7001 11.5799 18.7001 11.2199V4.67993H31.4201V11.2199C31.3601 11.5799 31.0601 11.8799 30.7002 11.8799L30.6999 11.8801Z" fill="#BBBBBB"/>
<path d="M29.0799 24.1201H20.9199V17.8201H29.0799V24.1201ZM22.2999 22.7402H27.6999V19.2001H22.2999V22.7402Z" fill="#BBBBBB"/>
<path d="M46.12 37.08H42.9399C41.5598 37.08 40.48 35.94 40.48 34.6201V31.98C40.48 31.6201 40.78 31.3201 41.1399 31.3201C41.4999 31.3201 41.7999 31.6201 41.7999 31.98V34.6201C41.7999 35.2201 42.28 35.7601 42.9399 35.7601H46.12C46.48 35.7601 46.78 36.0601 46.78 36.4201C46.7802 36.78 46.4802 37.08 46.12 37.08Z" fill="#BBBBBB"/>
</svg>
